<svg width="24" height="24" viewBox="0 0 24 24" fill="none" xmlns="http://www.w3.org/2000/svg">
<g clip-path="url(#clip0_1_4)">
<path d="M17.8573 5.64003C17.0147 4.79746 15.6428 4.79746 14.8003 5.64003L11.7432 8.69704L8.68624 5.64003C7.84367 4.78666 6.4826 4.78666 5.64003 5.64003C4.78666 6.4826 4.78666 7.84367 5.64003 8.68624L8.69704 11.7432L5.64003 14.8003C4.79746 15.6428 4.79746 17.0147 5.64003 17.8573C6.4826 18.6998 7.85447 18.6998 8.69704 17.8573L11.7541 14.8003L14.8111 17.8573C15.6536 18.6998 17.0255 18.6998 17.8681 17.8573C18.7106 17.0147 18.7106 15.6428 17.8681 14.8003L14.8111 11.7432L17.8681 8.68624C18.7106 7.84367 18.7106 6.47179 17.8681 5.62923L17.8573 5.64003Z" fill="white"/>
</g>
<defs>
<clipPath id="clip0_1_4">
<rect width="24" height="24" fill="white"/>
</clipPath>
</defs>
</svg>
