<svg width="24" height="24" viewBox="0 0 24 24" fill="none" xmlns="http://www.w3.org/2000/svg">
<g clip-path="url(#clip0_1_2)">
<path d="M12 8C13.6569 8 15 6.65685 15 5C15 3.34315 13.6569 2 12 2C10.3431 2 9 3.34315 9 5C9 6.65685 10.3431 8 12 8Z" fill="white"/>
<path d="M15 19V11.5C15 10.67 14.33 10 13.5 10H8C7.45 10 7 10.45 7 11C7 11.55 7.45 12 8 12H9V19H8C7.45 19 7 19.45 7 20C7 20.55 7.45 21 8 21H16C16.55 21 17 20.55 17 20C17 19.45 16.55 19 16 19H15Z" fill="white"/>
</g>
<defs>
<clipPath id="clip0_1_2">
<rect width="24" height="24" fill="white"/>
</clipPath>
</defs>
</svg>
