<?xml version="1.0" encoding="utf-8"?>
<!-- Generator: Adobe Illustrator 26.3.1, SVG Export Plug-In . SVG Version: 6.00 Build 0)  -->
<svg version="1.1" id="圖層_1" xmlns:serif="http://www.serif.com/"
	 xmlns="http://www.w3.org/2000/svg" xmlns:xlink="http://www.w3.org/1999/xlink" x="0px" y="0px" viewBox="0 0 595.3 841.9"
	 style="enable-background:new 0 0 595.3 841.9;" xml:space="preserve">
<style type="text/css">
	.st0{fill-rule:evenodd;clip-rule:evenodd;fill:#FFFFFF;}
</style>
<g>
	<path class="st0" d="M580.4,633.6L476.3,529.4c28.1-41.6,44.6-91.7,44.6-145.7c0-143.7-116.7-260.4-260.4-260.4S0,240,0,383.7
		s116.7,260.4,260.4,260.4c54,0,104.1-16.4,145.7-44.6l104.2,104.2c19.4,19.4,50.8,19.4,70.2,0C599.8,684.4,599.8,653,580.4,633.6z
		 M260.4,594.6c-116.4,0-210.8-94.5-210.8-210.8s94.5-210.8,210.8-210.8s210.8,94.5,210.8,210.8S376.8,594.6,260.4,594.6z"/>
	<path class="st0" d="M357.5,356.2c-28.5,0-69.5,0-69.5,0v-69.5c0-14.9-12-26.9-26.9-26.9c-0.4,0-0.9,0-1.3,0
		c-14.9,0-26.9,12-26.9,26.9c0,28.5,0,69.5,0,69.5h-69.5c-14.9,0-26.9,12-26.9,26.9c0,0.4,0,0.9,0,1.3c0,14.9,12,26.9,26.9,26.9
		c28.5,0,69.5,0,69.5,0v69.5c0,14.9,12,26.9,26.9,26.9c0.4,0,0.9,0,1.3,0c14.9,0,26.9-12,26.9-26.9c0-28.5,0-69.5,0-69.5h69.5
		c14.9,0,26.9-12,26.9-26.9c0-0.4,0-0.9,0-1.3C384.4,368.2,372.4,356.2,357.5,356.2z"/>
</g>
</svg>
