<?xml version="1.0" encoding="UTF-8" standalone="no"?>
<!DOCTYPE svg PUBLIC "-//W3C//DTD SVG 1.1//EN" "http://www.w3.org/Graphics/SVG/1.1/DTD/svg11.dtd">
<svg width="100%" height="100%" viewBox="0 0 64 64" version="1.1" xmlns="http://www.w3.org/2000/svg" xmlns:xlink="http://www.w3.org/1999/xlink" xml:space="preserve" xmlns:serif="http://www.serif.com/" style="fill-rule:evenodd;clip-rule:evenodd;stroke-linejoin:round;stroke-miterlimit:2;">
    <g transform="matrix(1.11111,0,0,1.11111,-6.66667,-5.55556)">
        <path d="M28.5,5C40.918,5 51,15.082 51,27.5C51,39.918 40.918,50 28.5,50C16.082,50 6,39.918 6,27.5C6,15.082 16.082,5 28.5,5ZM28.5,10.4C37.938,10.4 45.6,18.062 45.6,27.5C45.6,36.938 37.938,44.6 28.5,44.6C19.062,44.6 11.4,36.938 11.4,27.5C11.4,18.062 19.062,10.4 28.5,10.4Z" style="fill:rgb(62,122,29);"/>
    </g>
    <g transform="matrix(0.540284,0.540284,-0.883883,0.883883,76.161,-15.7629)">
        <path d="M58,51.997C58,50.937 57.311,49.92 56.085,49.171C54.858,48.421 53.195,48 51.461,48L19,48L19,56L51.461,56C53.195,56 54.858,55.579 56.085,54.829C57.311,54.08 58,53.063 58,52.003L58,51.997Z" style="fill:rgb(62,122,29);"/>
    </g>
</svg>
